# AST/ASF file generated using VICON BodyLanguage
# -----------------------------------------------
:version 1.10
:name VICON
:units
  mass 1.0
  length 0.45
  angle deg
:documentation
   .ast/.asf automatically generated from VICON data using
   VICON BodyBuilder and BodyLanguage model FoxedUp or BRILLIANT.MOD
:root
   order TX TY TZ RX RY RZ
   axis XYZ
   position 0 0 0  
   orientation 0 0 0 
:bonedata
  begin
     id 1 
     name lhipjoint
     direction 0.566809 -0.746272 0.349008 
     length 2.40479 
     axis 0 0 0  XYZ
  end
  begin
     id 2 
     name lfemur
     direction 0.34202 -0.939693 0  
     length 7.1578  
     axis 0 0 20  XYZ
    dof rx ry rz
    limits (-160.0 20.0)
           (-70.0 70.0)
           (-60.0 70.0)
  end
  begin
     id 3 
     name ltibia
     direction 0.34202 -0.939693 0   
     length 7.49137   
     axis 0 0 20   XYZ
    dof rx
    limits (-10.0 170.0)
  end
  begin
     id 4 
     name lfoot
     direction 0.0665746 -0.182912 0.980873   
     length 2.36784   
     axis -90 7.62852e-016 20   XYZ
    dof rx rz
    limits (-45.0 90.0)
           (-70.0 20.0)
  end
  begin
     id 5 
     name ltoes
     direction 1.53601e-011 -4.22058e-011 1   
     length 1.18966   
     axis -90 7.62852e-016 20   XYZ
    dof rx
    limits (-90.0 20.0)
  end
  begin
     id 6 
     name rhipjoint
     direction -0.550236 -0.756381 0.353735   
     length 2.37265  
     axis 0 0 0  XYZ 
  end
  begin
     id 7 
     name rfemur
     direction -0.34202 -0.939693 0   
     length 7.43386   
     axis 0 0 -20   XYZ
    dof rx ry rz
    limits (-160.0 20.0)
           (-70.0 70.0)
           (-70.0 60.0)
  end
  begin
     id 8 
     name rtibia
     direction -0.34202 -0.939693 0   
     length 7.50908   
     axis 0 0 -20   XYZ
    dof rx
    limits (-10.0 170.0)
 end
 begin
     id 9 
     name rfoot
     direction -0.0683029 -0.187661 0.979856   
     length 2.41173  
     axis -90 -7.62852e-016 -20   XYZ
    dof rx rz
    limits (-45.0 90.0)
           (-20.0 70.0)
  end
  begin
     id 10 
     name rtoes
     direction -1.53528e-011 -4.21968e-011 1   
     length 1.21082   
     axis -90 -7.62852e-016 -20   XYZ
    dof rx
    limits (-90.0 20.0)
  end
  begin
     id 11 
     name lowerback
     direction 0.013823 0.995423 -0.0945635   
     length 2.04495   
     axis 0 0 0   XYZ
    dof rx ry rz
    limits (-20.0 45.0)
           (-30.0 30.0)
           (-30.0 30.0)
  end
  begin
     id 12 
     name upperback
     direction 0.0276657 0.9994 -0.020853   
     length 2.05008   
     axis 0 0 0   XYZ
    dof rx ry rz
    limits (-20.0 45.0)
           (-30.0 30.0)
           (-30.0 30.0)
  end
  begin
     id 13 
     name thorax
     direction 0.019782 0.999531 0.0233827   
     length 2.06488   
     axis 0 0 0   XYZ
    dof rx ry rz
    limits (-20.0 45.0)
           (-30.0 30.0)
           (-30.0 30.0)
  end
  begin
     id 14 
     name lowerneck
     direction -0.0308541 0.994709 0.0979874   
     length 1.75553   
     axis 0 0 0   XYZ
    dof rx ry rz
    limits (-20.0 45.0)
           (-30.0 30.0)
           (-30.0 30.0)
  end
  begin
     id 15 
     name upperneck
     direction 0.0588398 0.995804 -0.0700903   
     length 1.76878   
     axis 0 0 0   XYZ
    dof rx ry rz
    limits (-20.0 45.0)
           (-30.0 30.0)
           (-30.0 30.0)
  end
  begin
     id 16
     name head
     direction 0.0209966 0.999159 -0.0352225  
     length 1.77193  
     axis 0 0 0   XYZ
    dof rx ry rz
    limits (-20.0 45.0)
           (-30.0 30.0)
           (-30.0 30.0)
  end
  begin
     id 17 
     name lclavicle
     direction 0.938182 0.335073 -0.0868338  
     length 3.58396  
     axis 0 0 0   XYZ
    dof ry rz
    limits (-20.0 10.0)
           (0.0 20.0)
  end
  begin
     id 18 
     name lhumerus
     direction 1 -4.48971e-011 -1.26313e-017   
     length 4.983   
     axis 180 -30 -90   XYZ
    dof rx ry rz
    limits (-60.0 90.0)
           (-90.0 90.0)
           (-90.0 90.0)
  end
  begin
     id 19
     name lradius
     direction 1 -4.48948e-011 -5.89033e-027   
     length 3.48356   
     axis 180 -30 -90   XYZ
    dof rx
    limits (-10.0 170.0)
  end
  begin
     id 20
     name lwrist
     direction 1 -4.48977e-011 -1.48983e-026   
     length 1.74178   
     axis 9.0955e-015 90 90   XYZ
    dof ry
    limits (-180.0 0.0)
 end
  begin
     id 21 
     name lhand
     direction 1 -4.49046e-011 -2.98066e-026   
     length 0.715259   
     axis 1.90115e-014 90 90   XYZ
    dof rx rz
    limits (-90.0 90.0)
           (-45.0 45.0)
  end
  begin
     id 22 
     name lfingers
     direction 1 -4.48907e-011 -5.95731e-026   
     length 0.576661   
     axis 3.80223e-014 90 90   XYZ
    dof rx
    limits (0.0 90.0)
  end
  begin
     id 23
     name lthumb
     direction 0.707107 -6.34963e-011 0.707107   
     length 0.827973   
     axis -90 45 -3.84942e-014   XYZ
    dof rx rz
    limits (-45.0 45.0)
           (-45.0 45.0)
  end
  begin
     id 24 
     name rclavicle
     direction -0.909637 0.398485 -0.11735   
     length 3.44819  
     axis 0 0 0   XYZ 
    dof ry rz
    limits (-10.0 20.0)
           (-20.0 0.0)
  end
  begin
     id 25 
     name rhumerus
     direction -1 -4.48978e-011 -1.09333e-027  
     length 5.2419   
     axis 180 30 90   XYZ
    dof rx ry rz
    limits (-90.0 60.0)
           (-90.0 90.0)
           (-90.0 90.0)
  end
  begin
     id 26 
     name rradius
     direction -1 -4.48953e-011 -7.61841e-027   
     length 3.44417   
     axis 180 30 90   XYZ
    dof rx
    limits (-10.0 170.0)
  end
  begin
     id 27 
     name rwrist
     direction -1 -4.48977e-011 -1.48983e-026   
     length 1.72209   
     axis 9.0955e-015 -90 -90   XYZ
    dof ry
    limits (-180.0 0.0)
  end
  begin
     id 28
     name rhand
     direction -1 -4.49027e-011 -2.98038e-026   
     length 0.622529   
     axis 1.90115e-014 -90 -90   XYZ
    dof rx rz
    limits (-90.0 90.0)
           (-45.0 45.0)
  end
  begin
     id 29
     name rfingers
     direction -1 -4.48838e-011 -5.95531e-026   
     length 0.501899   
     axis 3.80223e-014 -90 -90   XYZ
    dof rx
    limits (0.0 90.0)
  end
  begin
     id 30
     name rthumb
     direction -0.707107 -6.34937e-011 0.707107   
     length 0.720629   
     axis -90 -45 3.84942e-014   XYZ
    dof rx rz
    limits (-45.0 45.0)
           (-45.0 45.0)
  end
:hierarchy
  begin
    root lhipjoint rhipjoint lowerback
    lhipjoint lfemur
    lfemur ltibia
    ltibia lfoot
    lfoot ltoes
    rhipjoint rfemur
    rfemur rtibia
    rtibia rfoot
    rfoot rtoes
    lowerback upperback
    upperback thorax
    thorax lowerneck lclavicle rclavicle
    lowerneck upperneck
    upperneck head
    lclavicle lhumerus
    lhumerus lradius
    lradius lwrist
    lwrist lhand lthumb
    lhand lfingers
    rclavicle rhumerus
    rhumerus rradius
    rradius rwrist
    rwrist rhand rthumb
    rhand rfingers
  end

#!OML:ASF F:\VICON\USERDATA\Patient Classification 1\PLAYGROUND\JustinFriday\JustinFriday.ASF
:FULLY-SPECIFIED
:DEGREES
908
root 27.4522 28.7504 -3.55775 -28.5604 6.98004 4.03033
lowerback 43.7076 2.19272 8.57508
upperback 12.6576 6.19067 -3.9897
thorax -5.10037 3.57035 -11.1533
lowerneck 30.0824 -13.4696 -2.70521
upperneck 7.50035 -17.5242 5.67208
head -1.21126 -8.86823 3.6635
rclavicle 1.49089e-014 -1.35174e-014
rhumerus -53.3024 9.82887 -90.6585
rradius 66.3637
rwrist 42.9488
rhand -50.6822 -26.8097
rfingers 7.12502
rthumb -23.2437 -55.4269
lclavicle 1.49089e-014 -1.35174e-014
lhumerus 60.9085 32.7359 64.6049
lradius 93.6742
lwrist 14.8318
lhand 6.52751 -12.3264
lfingers 7.12502
lthumb 31.8258 14.9143
rfemur -57.9798 -10.5991 24.1475
rtibia 98.409
rfoot 3.65424 -9.11449
rtoes 2.45024
lfemur -54.2283 5.72865 -8.94706
ltibia 98.467
lfoot 10.0609 -21.1328
ltoes -1.73326
909
root 27.4829 28.7282 -3.57022 -28.9312 6.68716 3.63063
lowerback 43.3973 2.05043 8.46145
upperback 12.8438 5.95111 -3.82118
thorax -4.87902 3.46021 -10.7904
lowerneck 31.2497 -13.3749 -3.32316
upperneck 6.16293 -17.5536 6.20046
head -1.672 -8.94584 4.03442
rclavicle -3.17559e-014 -7.95139e-015
rhumerus -52.8715 10.3359 -90.2343
rradius 66.4272
rwrist 43.5698
rhand -50.2132 -26.3138
rfingers 7.12502
rthumb -22.7938 -54.9871
lclavicle -3.17559e-014 -7.95139e-015
lhumerus 61.154 33.0181 64.5377
lradius 93.7183
lwrist 14.4629
lhand 6.70787 -11.9875
lfingers 7.12502
lthumb 31.9976 15.2189
rfemur -57.1658 -10.5305 23.8795
rtibia 97.8327
rfoot 3.60415 -9.48257
rtoes 2.51937
lfemur -53.3951 5.34878 -9.221
ltibia 97.6824
lfoot 10.2424 -20.605
ltoes -0.976741
910
root 27.5172 28.6982 -3.58193 -29.4472 6.62118 3.41533
lowerback 43.3826 1.8492 8.30408
upperback 13.0183 5.63619 -3.78394
thorax -4.76149 3.31456 -10.5386
lowerneck 31.9251 -13.3037 -3.66174
upperneck 5.1688 -17.5575 6.35654
head -2.02335 -8.97483 4.21201
rclavicle -3.4191e-014 -3.3197e-014
rhumerus -52.3997 11.0125 -89.8978
rradius 66.5686
rwrist 43.7821
rhand -49.7696 -26.2878
rfingers 7.12502
rthumb -22.3679 -55.0129
lclavicle -3.4191e-014 -3.3197e-014
lhumerus 61.2578 33.1294 64.3917
lradius 93.9577
lwrist 14.1862
lhand 6.89158 -11.5716
lfingers 7.12502
lthumb 32.1725 15.5996
rfemur -56.2565 -10.6588 23.2544
rtibia 97.2812
rfoot 3.55417 -9.79683
rtoes 4.18846
lfemur -52.5165 4.86824 -9.80437
ltibia 96.9585
lfoot 10.1995 -20.316
ltoes -1.14223
911
root 27.5531 28.6651 -3.59072 -30.0314 6.43527 3.07768
lowerback 43.5624 1.6584 8.30567
upperback 13.0818 5.41609 -3.73201
thorax -4.7871 3.20403 -10.4027
lowerneck 29.4473 -13.5728 -3.42448
upperneck 7.74875 -17.9575 4.6385
head -1.06687 -9.05372 3.42132
rclavicle -4.20927e-014 7.83212e-014
rhumerus -52.0794 11.5825 -89.5996
rradius 66.6489
rwrist 43.8156
rhand -49.4034 -26.0462
rfingers 7.12502
rthumb -22.0164 -54.8131
lclavicle -4.20927e-014 7.83212e-014
lhumerus 61.1246 33.143 64.0829
lradius 94.3056
lwrist 14.0593
lhand 7.30461 -10.922
lfingers 7.12502
lthumb 32.5656 16.1688
rfemur -55.1733 -10.7824 22.8035
rtibia 96.6752
rfoot 3.46917 -10.0697
rtoes 7.18047
lfemur -51.6703 4.5547 -10.1696
ltibia 96.3635
lfoot 10.2077 -19.908
ltoes -0.758078
912
root 27.5864 28.6321 -3.59655 -30.4069 6.0101 2.74478
lowerback 43.534 1.65736 8.17439
upperback 13.0979 5.36035 -3.59015
thorax -4.79251 3.15995 -10.1545
lowerneck 29.7523 -13.6315 -3.75116
upperneck 7.56063 -18.1379 4.55916
head -1.13077 -9.15082 3.47652
rclavicle 4.44284e-014 -1.68967e-014
rhumerus -51.7646 12.0389 -89.2672
rradius 66.6525
rwrist 43.9764
rhand -48.9601 -25.4511
rfingers 7.12502
rthumb -21.5907 -54.2675
lclavicle 4.44284e-014 -1.68967e-014
lhumerus 61.1327 33.0697 63.9775
lradius 94.5061
lwrist 13.6688
lhand 7.59511 -10.3454
lfingers 7.12502
lthumb 32.842 16.688
rfemur -54.3297 -10.6238 22.5673
rtibia 96.088
rfoot 3.4246 -10.2976
rtoes 9.00354
lfemur -50.9222 4.51457 -10.383
ltibia 95.7687
lfoot 9.93855 -19.5592
ltoes -1.38601
913
root 27.6203 28.5917 -3.59977 -30.6462 5.41001 2.45707
lowerback 43.2882 1.76579 7.82032
upperback 13.1969 5.33293 -3.35421
thorax -4.66523 3.12681 -9.68531
lowerneck 29.7023 -13.4616 -4.50503
upperneck 7.62 -18.1692 4.66752
head -1.03647 -9.19538 3.5987
rclavicle 8.15017e-015 2.5842e-014
rhumerus -51.2533 13.1256 -88.9179
rradius 66.776
rwrist 43.7462
rhand -48.3861 -24.8809
rfingers 7.12502
rthumb -21.0394 -53.7596
lclavicle 8.15017e-015 2.5842e-014
lhumerus 61.1639 33.2668 63.8739
lradius 94.5735
lwrist 13.0933
lhand 7.74598 -9.95355
lfingers 7.12502
lthumb 32.9855 17.0497
rfemur -53.813 -10.1758 22.4608
rtibia 95.5674
rfoot 3.67693 -10.4626
rtoes 7.9916
lfemur -50.2797 4.63615 -10.4677
ltibia 95.1796
lfoot 9.56472 -19.3208
ltoes -2.29536
914
root 27.6578 28.5523 -3.60608 -30.9501 4.74542 2.04049
lowerback 43.1643 1.77072 7.63229
upperback 13.2869 5.25635 -3.11708
thorax -4.57537 3.07155 -9.28863
lowerneck 29.6232 -13.3326 -4.99015
upperneck 7.5358 -18.1729 4.44163
head -1.0348 -9.19993 3.59099
rclavicle 3.97569e-016 -4.59193e-014
rhumerus -50.7143 14.4523 -88.6543
rradius 66.8018
rwrist 43.0322
rhand -47.9876 -24.3934
rfingers 7.12502
rthumb -20.6565 -53.3142
lclavicle 3.97569e-016 -4.59193e-014
lhumerus 60.9445 33.739 63.2791
lradius 94.5807
lwrist 12.8485
lhand 8.26503 -9.68616
lfingers 7.12502
lthumb 33.479 17.2117
rfemur -53.1814 -9.49056 22.4305
rtibia 94.9195
rfoot 4.03918 -10.7474
rtoes 7.691
lfemur -49.6183 4.78718 -10.3922
ltibia 94.5495
lfoot 9.5569 -18.7529
ltoes -1.256
915
root 27.6966 28.542 -3.62932 -31.2377 4.49818 1.91956
lowerback 42.9302 1.76219 7.23619
upperback 13.4681 5.06903 -2.9775
thorax -4.3836 2.97326 -8.84367
lowerneck 29.7337 -13.3202 -5.25649
upperneck 7.17809 -18.255 4.20157
head -1.15403 -9.23375 3.57997
rclavicle -5.87409e-014 3.65764e-014
rhumerus -50.1374 15.4594 -88.3309
rradius 66.7522
rwrist 42.385
rhand -47.7241 -24.3058
rfingers 7.12502
rthumb -20.4033 -53.2539
lclavicle -5.87409e-014 3.65764e-014
lhumerus 60.8266 34.176 62.6481
lradius 94.5529
lwrist 12.7477
lhand 8.58935 -9.25695
lfingers 7.12502
lthumb 33.7872 17.5738
rfemur -52.3142 -9.12488 21.8068
rtibia 94.0738
rfoot 4.30136 -10.8514
rtoes 8.26671
lfemur -48.7329 4.60016 -10.9044
ltibia 93.6356
lfoot 9.72745 -17.9497
ltoes -0.100504
916
root 27.73 28.5559 -3.6711 -31.2392 3.98042 1.40984
lowerback 42.4218 1.70599 7.28084
upperback 13.5532 4.98905 -2.77735
thorax -4.16717 2.93177 -8.59542
lowerneck 29.8553 -13.3045 -5.65791
upperneck 6.81833 -18.3723 4.28742
head -1.23396 -9.30613 3.68501
rclavicle 4.96962e-016 3.08116e-014
rhumerus -49.5498 16.2855 -87.982
rradius 66.6974
rwrist 41.9434
rhand -47.2815 -23.8021
rfingers 7.12502
rthumb -19.9779 -52.7952
lclavicle 4.96962e-016 3.08116e-014
lhumerus 60.8365 34.3797 62.2512
lradius 94.5279
lwrist 12.1614
lhand 8.61047 -8.81769
lfingers 7.12502
lthumb 33.8073 18.0087
rfemur -51.6624 -8.68959 21.9064
rtibia 93.1168
rfoot 4.63806 -11.1036
rtoes 7.36342
lfemur -48.0942 4.56379 -10.7585
ltibia 92.6284
lfoot 10.0515 -17.43
ltoes 0.804712
917
root 27.7579 28.5618 -3.71306 -31.2953 3.11441 0.840198
lowerback 42.3644 1.69977 7.52672
upperback 13.3906 5.07329 -2.63484
thorax -4.30473 2.94948 -8.60371
lowerneck 29.9246 -13.2869 -5.96394
upperneck 6.67924 -18.459 4.30361
head -1.25376 -9.35947 3.74283
rclavicle -2.98177e-016 8.74653e-015
rhumerus -49.2552 16.9902 -87.8746
rradius 66.5909
rwrist 41.2063
rhand -47.0282 -22.8129
rfingers 7.12502
rthumb -19.7344 -51.8311
lclavicle -2.98177e-016 8.74653e-015
lhumerus 60.691 34.3118 61.6756
lradius 94.4844
lwrist 11.3848
lhand 9.03181 -8.47259
lfingers 7.12502
lthumb 34.2075 18.2649
rfemur -51.0559 -7.88346 22.3386
rtibia 92.2121
rfoot 4.90905 -11.591
rtoes 7.57626
lfemur -47.3715 4.87927 -10.248
ltibia 91.6665
lfoot 10.4444 -17.0833
ltoes 1.75367
918
root 27.7931 28.5488 -3.74332 -31.6996 3.11179 1.4821
lowerback 42.624 1.87699 6.57376
upperback 13.373 4.89929 -2.80175
thorax -4.49678 2.82821 -8.24395
lowerneck 30.1904 -13.112 -6.3632
upperneck 6.44469 -18.375 4.48315
head -1.31558 -9.33897 3.86818
rclavicle -2.08724e-015 7.95139e-015
rhumerus -49.0741 17.8754 -87.8401
rradius 66.536
rwrist 40.3721
rhand -46.9069 -22.3393
rfingers 7.12502
rthumb -19.6178 -51.3695
lclavicle -2.08724e-015 7.95139e-015
lhumerus 60.524 34.2488 60.9737
lradius 94.4275
lwrist 11.0403
lhand 9.64466 -7.92224
lfingers 7.12502
lthumb 34.7892 18.6828
rfemur -50.2117 -7.57064 20.9395
rtibia 91.5524
rfoot 4.84777 -11.6059
rtoes 9.34687
lfemur -46.1415 4.66438 -11.5113
ltibia 90.6397
lfoot 10.6933 -16.5967
ltoes 2.43604
919
root 27.833 28.5298 -3.76826 -32.0277 3.0299 1.74109
lowerback 42.2381 1.95792 5.98692
upperback 13.6255 4.73283 -2.82436
thorax -4.17733 2.75082 -7.87818
lowerneck 30.6072 -12.9355 -6.83491
upperneck 5.93691 -18.3124 4.81049
head -1.46106 -9.33466 4.06964
rclavicle -9.64106e-015 4.33351e-014
rhumerus -48.553 18.8132 -87.5024
rradius 66.4313
rwrist 39.8494
rhand -46.6317 -21.8907
rfingers 7.12502
rthumb -19.3531 -50.9476
lclavicle -9.64106e-015 4.33351e-014
lhumerus 60.5476 34.2226 60.4119
lradius 94.3239
lwrist 11.0516
lhand 9.86506 -7.37219
lfingers 7.12502
lthumb 34.9983 19.1843
rfemur -49.4265 -7.25803 19.9952
rtibia 90.9445
rfoot 4.55837 -11.6977
rtoes 10.8819
lfemur -45.2563 4.48152 -12.335
ltibia 89.8237
lfoot 10.8061 -16.431
ltoes 2.67331
920
root 27.867 28.5145 -3.79272 -32.284 2.53957 1.26731
lowerback 41.9227 1.84058 6.05761
upperback 13.8268 4.60287 -2.65967
thorax -3.88644 2.69601 -7.66665
lowerneck 30.165 -12.758 -7.4139
upperneck 5.9569 -18.2711 4.99081
head -1.34522 -9.34029 4.16406
rclavicle -4.12478e-014 3.97569e-015
rhumerus -47.8579 19.7874 -87.0534
rradius 66.322
rwrist 39.4605
rhand -46.2037 -21.1559
rfingers 7.12502
rthumb -18.9416 -50.2536
lclavicle -4.12478e-014 3.97569e-015
lhumerus 60.4884 34.4808 59.6929
lradius 94.2551
lwrist 11.1576
lhand 9.76023 -6.92982
lfingers 7.12502
lthumb 34.8989 19.6498
rfemur -48.6692 -6.77394 20.1283
rtibia 90.3089
rfoot 4.26342 -12.045
rtoes 11.5095
lfemur -44.6371 4.58618 -12.1075
ltibia 89.1339
lfoot 11.0167 -16.4592
ltoes 2.74705
